<mxfile host="app.diagrams.net" modified="2021-10-27T08:19:30.879Z" agent="5.0 (Macintosh; Intel Mac OS X 10_15_7) AppleWebKit/537.36 (KHTML, like Gecko) Chrome/95.0.4638.54 Safari/537.36" etag="UvUJPvPxMZa5_sdAC4tx" version="15.3.5" type="github">
  <diagram id="9wXXoR2qP_-NR6fR9nYb" name="第 1 页">
    <mxGraphModel dx="1426" dy="744" grid="1" gridSize="10" guides="1" tooltips="1" connect="1" arrows="1" fold="1" page="1" pageScale="1" pageWidth="12000" pageHeight="1920" math="0" shadow="0">
      <root>
        <mxCell id="0" />
        <mxCell id="1" parent="0" />
        <mxCell id="Oz957IBAU5CTweKv7Puf-3" value="" style="edgeStyle=none;curved=1;rounded=0;orthogonalLoop=1;jettySize=auto;html=1;endArrow=open;startSize=14;endSize=14;sourcePerimeterSpacing=8;targetPerimeterSpacing=8;" edge="1" parent="1" source="Oz957IBAU5CTweKv7Puf-1" target="Oz957IBAU5CTweKv7Puf-2">
          <mxGeometry relative="1" as="geometry" />
        </mxCell>
        <mxCell id="Oz957IBAU5CTweKv7Puf-1" value="获取商品列表" style="rounded=1;whiteSpace=wrap;html=1;hachureGap=4;pointerEvents=0;" vertex="1" parent="1">
          <mxGeometry x="190" y="280" width="120" height="60" as="geometry" />
        </mxCell>
        <mxCell id="Oz957IBAU5CTweKv7Puf-2" value="调起&#39;处理未完成订单&#39;" style="whiteSpace=wrap;html=1;rounded=1;hachureGap=4;" vertex="1" parent="1">
          <mxGeometry x="390" y="280" width="120" height="60" as="geometry" />
        </mxCell>
      </root>
    </mxGraphModel>
  </diagram>
</mxfile>
